<svg width="32" height="32" viewBox="0 0 32 32" fill="none" xmlns="http://www.w3.org/2000/svg">
<path d="M11.0213 19.8205H11.0226C11.0237 19.8205 11.0247 19.8203 11.0258 19.8203H25.8984C26.2646 19.8203 26.5865 19.5861 26.6871 19.2466L29.9684 8.1724C30.0391 7.93365 29.9895 7.67699 29.8347 7.47882C29.6796 7.28065 29.4371 7.16406 29.1797 7.16406H9.12945L8.54306 4.61942C8.45953 4.25749 8.12671 4 7.74219 4H2.82031C2.36722 4 2 4.3541 2 4.79102C2 5.22793 2.36722 5.58203 2.82031 5.58203H7.08423C7.18805 6.03295 9.89038 17.7593 10.0459 18.434C9.1741 18.7994 8.5625 19.6376 8.5625 20.6113C8.5625 21.9198 9.6665 22.9844 11.0234 22.9844H25.8984C26.3515 22.9844 26.7187 22.6303 26.7187 22.1934C26.7187 21.7564 26.3515 21.4023 25.8984 21.4023H11.0234C10.5712 21.4023 10.2031 21.0474 10.2031 20.6113C10.2031 20.1759 10.5699 19.8215 11.0213 19.8205ZM28.0921 8.74609L25.2796 18.2383H11.6814L9.4939 8.74609H28.0921Z" fill="#0D2DFF"/>
<path d="M10.2031 25.3574C10.2031 26.6659 11.2686 27.7305 12.5781 27.7305C13.8877 27.7305 14.9531 26.6659 14.9531 25.3574C14.9531 24.049 13.8877 22.9844 12.5781 22.9844C11.2686 22.9844 10.2031 24.049 10.2031 25.3574ZM12.5781 24.5664C13.0146 24.5664 13.3698 24.9213 13.3698 25.3574C13.3698 25.7935 13.0146 26.1484 12.5781 26.1484C12.1417 26.1484 11.7865 25.7935 11.7865 25.3574C11.7865 24.9213 12.1417 24.5664 12.5781 24.5664Z" fill="#0D2DFF"/>
<path d="M21.7969 25.3574C21.7969 26.6659 22.8623 27.7305 24.1719 27.7305C25.4814 27.7305 26.5469 26.6659 26.5469 25.3574C26.5469 24.049 25.4814 22.9844 24.1719 22.9844C22.8623 22.9844 21.7969 24.049 21.7969 25.3574ZM24.1719 24.5664C24.6083 24.5664 24.9635 24.9213 24.9635 25.3574C24.9635 25.7935 24.6083 26.1484 24.1719 26.1484C23.7354 26.1484 23.3802 25.7935 23.3802 25.3574C23.3802 24.9213 23.7354 24.5664 24.1719 24.5664Z" fill="#0D2DFF"/>
</svg>
