<svg width="32" height="32" viewBox="0 0 32 32" fill="none" xmlns="http://www.w3.org/2000/svg">
<g clip-path="url(#clip0_1010_20503)">
<path d="M11.0781 19.4553H25.8987C26.2657 19.4553 26.5876 19.2213 26.6869 18.8814L29.9684 7.80696C30.0389 7.56821 29.9906 7.31175 29.8353 7.11338C29.6798 6.91563 29.438 6.79883 29.1799 6.79883H9.18436L8.59796 4.25439C8.51465 3.89205 8.1814 3.63477 7.79688 3.63477H2.82031C2.367 3.63477 2 3.98866 2 4.42578C2 4.86311 2.367 5.2168 2.82031 5.2168H7.13849L10.1008 18.0708C9.22922 18.4362 8.61719 19.2728 8.61719 20.2463C8.61719 21.5548 9.72119 22.6193 11.0781 22.6193H25.8987C26.3522 22.6193 26.719 22.2657 26.719 21.8283C26.719 21.3912 26.3522 21.0373 25.8987 21.0373H11.0781C10.6263 21.0373 10.2578 20.6828 10.2578 20.2463C10.2578 19.8098 10.6263 19.4553 11.0781 19.4553Z" fill="#0D2DFF"/>
<path d="M10.2578 24.9922C10.2578 26.3009 11.3232 27.3652 12.6329 27.3652C13.9424 27.3652 15.0078 26.3009 15.0078 24.9922C15.0078 23.6837 13.9424 22.6191 12.6329 22.6191C11.3232 22.6191 10.2578 23.6837 10.2578 24.9922Z" fill="#0D2DFF"/>
<path d="M21.7969 24.9922C21.7969 26.3009 22.8623 27.3652 24.1719 27.3652C25.4816 27.3652 26.5469 26.3009 26.5469 24.9922C26.5469 23.6837 25.4816 22.6191 24.1719 22.6191C22.8623 22.6191 21.7969 23.6837 21.7969 24.9922Z" fill="#0D2DFF"/>
</g>
<defs>
<clipPath id="clip0_1010_20503">
<rect width="28" height="27" fill="white" transform="translate(2 2)"/>
</clipPath>
</defs>
</svg>
