<svg width="26" height="22" viewBox="0 0 26 22" fill="none" xmlns="http://www.w3.org/2000/svg">
<path d="M25.4583 7.74983H21.0164L15.9643 0.401388C15.7949 0.154896 15.4577 0.0923845 15.2112 0.26179L14.3183 0.875481C14.0717 1.04494 14.0092 1.38217 14.1787 1.62872L18.3869 7.74983H7.61301L11.8213 1.62872C11.9908 1.38217 11.9283 1.04494 11.6817 0.875481L10.7887 0.26179C10.5422 0.0923845 10.205 0.154896 10.0356 0.401388L4.98351 7.74983H0.541683C0.242531 7.74983 0 7.99231 0 8.29151V9.37482C0 9.67398 0.242531 9.91651 0.541683 9.91651H1.2289L4.54019 20.3235C4.82797 21.2264 5.65738 21.8332 6.60475 21.8332H19.3953C20.3426 21.8332 21.1721 21.2264 21.4598 20.3229L24.771 9.91651H25.4583C25.7575 9.91651 26 9.67398 26 9.37482V8.29151C25.9999 7.99231 25.7574 7.74983 25.4583 7.74983Z" fill="#0D2DFF"/>
</svg>
