<svg width="28" height="28" viewBox="0 0 28 28" fill="none" xmlns="http://www.w3.org/2000/svg">
<path d="M17.8121 4.09825C16.9796 3.39224 15.9104 3.00425 14.8021 3.00425C13.5219 3.00425 12.2828 3.52598 11.4028 4.43726C11.2447 4.60132 11.0964 4.77744 10.9572 4.96871C9.87958 3.49876 8.07908 2.74455 6.29829 3.07811C4.82056 3.35297 3.65878 4.18534 2.84747 5.55032C1.70276 7.47746 1.60908 9.33618 2.57059 11.0752C3.08453 12.0055 3.75133 12.9121 4.60929 13.8467C6.18071 15.5589 8.04077 17.1839 10.4633 18.9591C10.6181 19.073 10.7838 19.1305 10.9568 19.1305C11.223 19.1305 11.4028 18.9925 11.492 18.9249C13.6778 17.3251 15.3949 15.8504 16.8961 14.2818C17.7344 13.4062 18.6857 12.3301 19.3813 10.9861C19.6794 10.4119 20.0193 9.63903 19.9992 8.75613C19.9544 6.8562 19.2189 5.28906 17.8121 4.09825Z" fill="#0D2DFF"/>
</svg>
