<svg width="32" height="32" viewBox="0 0 32 32" fill="none" xmlns="http://www.w3.org/2000/svg">
<path d="M25.9759 6.55234C24.8251 5.55442 23.3472 5.006 21.8153 5.006C20.0459 5.006 18.3332 5.74345 17.1169 7.03152C16.8982 7.26342 16.6933 7.51235 16.5009 7.78271C15.0114 5.70499 12.5227 4.63892 10.0613 5.11041C8.01875 5.49892 6.41293 6.67544 5.29152 8.60479C3.70929 11.3288 3.5798 13.956 4.90881 16.414C5.61919 17.729 6.54085 19.0105 7.72674 20.3315C9.89877 22.7516 12.4698 25.0486 15.8183 27.5577C16.0322 27.7187 16.2613 27.8 16.5003 27.8C16.8684 27.8 17.1169 27.6049 17.2401 27.5093C20.2614 25.248 22.6348 23.1637 24.7098 20.9464C25.8684 19.7089 27.1833 18.1878 28.1448 16.2882C28.5569 15.4765 29.0266 14.3841 28.9988 13.1361C28.937 10.4506 27.9204 8.23552 25.9759 6.55234ZM26.5709 15.4122C25.7148 17.1014 24.5069 18.4956 23.4374 19.6375C21.5186 21.6883 19.3245 23.6292 16.4972 25.769C13.4203 23.4357 11.0385 21.2932 9.02534 19.0489C7.93854 17.8383 7.09919 16.675 6.45906 15.4908C5.44566 13.6169 5.55837 11.7365 6.81452 9.57579C7.65963 8.12067 8.85915 7.23594 10.3806 6.94635C10.6721 6.8903 10.9672 6.86282 11.2582 6.86282C13.0617 6.86282 14.6591 7.90691 15.5614 9.71976L15.7145 10.0225C15.8717 10.3319 16.1957 10.5078 16.5155 10.516C16.8505 10.5094 17.153 10.3088 17.3004 9.99342C17.617 9.31642 17.9625 8.79108 18.384 8.34377C19.2679 7.40904 20.5183 6.87216 21.8153 6.87216C22.9336 6.87216 24.0078 7.26946 24.8409 7.99153C26.3906 9.3329 27.1676 11.0309 27.2174 13.1784C27.2347 13.989 26.9007 14.7616 26.5709 15.4122Z" fill="#0D2DFF"/>
</svg>
