<svg width="19" height="17" viewBox="0 0 19 17" fill="none" xmlns="http://www.w3.org/2000/svg">
<path d="M16.8121 1.09825C15.9796 0.392241 14.9104 0.00424534 13.8021 0.00424534C12.5219 0.00424534 11.2828 0.525978 10.4028 1.43726C10.2447 1.60132 10.0964 1.77744 9.95716 1.96871C8.87958 0.498764 7.07908 -0.255454 5.29829 0.0781123C3.82056 0.352974 2.65878 1.18534 1.84747 2.55032C0.702763 4.47746 0.609078 6.33618 1.57059 8.07516C2.08453 9.00549 2.75133 9.91211 3.60929 10.8467C5.18071 12.5589 7.04077 14.1839 9.46332 15.9591C9.61807 16.073 9.78382 16.1305 9.95678 16.1305C10.223 16.1305 10.4028 15.9925 10.492 15.9249C12.6778 14.3251 14.3949 12.8504 15.8961 11.2818C16.7344 10.4062 17.6857 9.33012 18.3813 7.98613C18.6794 7.41191 19.0193 6.63903 18.9992 5.75613C18.9544 3.8562 18.2189 2.28906 16.8121 1.09825Z" fill="#0D2DFF"/>
</svg>
