<svg width="22" height="22" viewBox="0 0 22 22" fill="none" xmlns="http://www.w3.org/2000/svg">
<path d="M16.8437 4.88273L16.8434 4.88244C16.1439 4.27593 15.2444 3.94163 14.3105 3.94163C13.2317 3.94163 12.1858 4.39186 11.4442 5.17709C11.3095 5.31991 11.1831 5.47331 11.0642 5.64043L10.6583 6.21074L10.2505 5.64184C9.33226 4.36103 7.81161 3.71948 6.3237 4.00448L6.32306 4.0046C5.07267 4.24242 4.08695 4.95542 3.38277 6.16681L16.8437 4.88273ZM16.8437 4.88273C18.0684 5.94281 18.7098 7.32977 18.7493 9.04191C18.7656 9.77194 18.4904 10.4312 18.2162 10.9713L18.2159 10.9719C17.5878 12.2129 16.7235 13.2167 15.9355 14.0583L15.9354 14.0584C14.5331 15.5568 12.9246 16.9705 10.8655 18.5115L10.8654 18.5115L10.8585 18.5168C10.778 18.5793 10.7259 18.6117 10.6565 18.6117C10.6134 18.6117 10.5594 18.5992 10.4882 18.5456L10.4874 18.5449C8.20454 16.8345 6.46301 15.277 4.99673 13.6434L4.9967 13.6433C4.20299 12.7592 3.59377 11.9101 3.12721 11.0465L3.12713 11.0464M16.8437 4.88273L3.12713 11.0464M3.12713 11.0464C2.30817 9.53182 2.3691 7.91192 3.3827 6.16693L3.12713 11.0464ZM10.654 18.3427L10.3522 18.1138C8.21816 16.4957 6.55557 15.0016 5.14537 13.4297C4.37723 12.5741 3.77556 11.7425 3.31331 10.8874L10.654 18.3427ZM10.654 18.3427L10.956 18.1141M10.654 18.3427L10.956 18.1141M10.956 18.1141C12.9171 16.63 14.4479 15.277 15.7906 13.842L10.956 18.1141ZM10.7535 6.6587L10.7536 6.65845C10.9892 6.15467 11.2547 5.74664 11.5876 5.39331L11.5882 5.39267C12.2911 4.64947 13.2824 4.22454 14.3105 4.22454C15.1976 4.22454 16.0527 4.53969 16.7178 5.11601C17.8958 6.13555 18.487 7.43883 18.5243 9.04828L18.5243 9.0492C18.5391 9.73978 18.2564 10.3671 18.026 10.8216C18.026 10.8216 18.026 10.8216 18.026 10.8216L17.58 10.5955L10.7535 6.6587ZM10.7535 6.6587C10.732 6.70468 10.6973 6.72469 10.6674 6.72884C10.6465 6.72642 10.6245 6.71931 10.6053 6.70786C10.5835 6.69488 10.5699 6.67937 10.562 6.664C10.562 6.66391 10.5619 6.66382 10.5619 6.66372L10.4586 6.45937C10.4583 6.45891 10.4581 6.45845 10.4579 6.45798C9.76349 5.064 8.50431 4.21812 7.05251 4.21812C6.82137 4.21812 6.58699 4.23991 6.35524 4.28444M10.7535 6.6587L6.35524 4.28444M2.79107 8.66034C2.83719 7.89257 3.10558 7.12253 3.56512 6.33207L2.79107 8.66034ZM2.79107 8.66034C2.74465 9.43335 2.92565 10.1706 3.31326 10.8873L2.79107 8.66034ZM6.35524 4.28444C5.1537 4.51326 4.21183 5.21871 3.56522 6.33188L6.35524 4.28444ZM11.165 18.9118C13.2422 17.3573 14.8739 15.9244 16.3005 14.4001L4.62463 13.9774C6.11791 15.6411 7.88547 17.2202 10.1876 18.9451C10.3346 19.0558 10.4921 19.1117 10.6565 19.1117C10.9076 19.1117 11.0777 18.9796 11.1631 18.9133L11.165 18.9118Z" stroke="#E4E4E4"/>
</svg>
