<svg width="32" height="32" viewBox="0 0 32 32" fill="none" xmlns="http://www.w3.org/2000/svg">
<path d="M25.9759 6.55234C24.8251 5.55442 23.3472 5.006 21.8153 5.006C20.0459 5.006 18.3332 5.74345 17.1169 7.03152C16.8982 7.26342 16.6933 7.51235 16.5009 7.78271C15.0114 5.70499 12.5227 4.63892 10.0613 5.11041C8.01875 5.49892 6.41293 6.67544 5.29152 8.60479C3.70929 11.3288 3.5798 13.956 4.90881 16.414C5.61919 17.729 6.54085 19.0105 7.72674 20.3315C9.89877 22.7516 12.4698 25.0486 15.8183 27.5577C16.0322 27.7187 16.2613 27.8 16.5003 27.8C16.8684 27.8 17.1169 27.6049 17.2401 27.5093C20.2614 25.248 22.6348 23.1637 24.7098 20.9464C25.8684 19.7089 27.1833 18.1878 28.1448 16.2882C28.5569 15.4765 29.0266 14.3841 28.9988 13.1361C28.937 10.4506 27.9204 8.23552 25.9759 6.55234Z" fill="#0D2DFF"/>
</svg>
