<svg width="26" height="26" viewBox="0 0 26 26" fill="none" xmlns="http://www.w3.org/2000/svg">
<path d="M9.00039 5.5H17.0002C18.9238 5.5 20.5001 7.07629 20.5001 8.9999V17.0001C20.5001 18.9232 18.9238 20.5 17.0002 20.5H9.00039C7.07683 20.5 5.50049 18.9232 5.50049 17.0001V8.9999C5.50049 7.07629 7.07678 5.5 9.00039 5.5ZM17.0002 20.1666C18.7472 20.1666 20.1667 18.7461 20.1667 17.0001V8.9999C20.1667 7.25346 18.7472 5.83337 17.0002 5.83337H9.00039C7.25411 5.83337 5.83385 7.25338 5.83385 8.9999V17.0001C5.83385 18.7462 7.25406 20.1666 9.00039 20.1666H17.0002Z" stroke="white"/>
<path d="M17.8339 8.66697C17.8339 8.9431 17.6101 9.16694 17.334 9.16694C17.0578 9.16694 16.834 8.9431 16.834 8.66697C16.834 8.39084 17.0578 8.16699 17.334 8.16699C17.6101 8.16699 17.8339 8.39084 17.8339 8.66697Z" stroke="white"/>
<path d="M9.5 12.9994C9.5 11.0662 11.0665 9.49951 12.9999 9.49951C14.9327 9.49951 16.4998 11.0662 16.4998 12.9994C16.4998 14.9319 14.9326 16.4997 12.9999 16.4997C11.0666 16.4997 9.5 14.932 9.5 12.9994ZM9.83337 12.9994C9.83337 14.7485 11.2511 16.1663 12.9999 16.1663C14.7487 16.1663 16.1664 14.7485 16.1664 12.9994C16.1664 11.2503 14.7486 9.83288 12.9999 9.83288C11.2512 9.83288 9.83337 11.2503 9.83337 12.9994Z" stroke="white"/>
</svg>
