<svg width="23" height="25" viewBox="0 0 23 25" fill="none" xmlns="http://www.w3.org/2000/svg">
<path fill-rule="evenodd" clip-rule="evenodd" d="M10.2672 9.53979L10.3511 5.97247H6.30788L6.23291 9.53979H10.2672Z" fill="#0D2DFF"/>
<path fill-rule="evenodd" clip-rule="evenodd" d="M15.1037 3.84934C14.3171 1.80358 13.753 0.520467 13.4114 0H11.0605C12.1635 2.11731 12.8671 4.43677 13.133 6.83206C13.2775 8.0442 13.3275 9.79611 13.2686 12.0803C13.2006 15.0802 12.5951 18.0401 11.4835 20.8062C11.0203 22.0029 10.4836 23.167 9.87695 24.2914H12.4992C13.2028 23.1806 13.8246 22.0156 14.3593 20.8062C14.6128 20.231 14.8502 19.6464 15.0608 19.0525C15.907 16.602 16.3527 14.3191 16.3979 12.2036C16.4568 9.1144 16.0266 6.33525 15.1037 3.84934Z" fill="#0D2DFF"/>
<path fill-rule="evenodd" clip-rule="evenodd" d="M5.8339 15.8678L5.75 19.4071H9.82535L9.91103 15.8678H5.8339Z" fill="#0D2DFF"/>
</svg>
