<svg width="24" height="24" viewBox="0 0 24 24" fill="none" xmlns="http://www.w3.org/2000/svg">
<path d="M14.9592 12.8301L13.2841 14.5108C12.6049 15.1925 11.4097 15.2072 10.7158 14.5108L9.04066 12.8301L3.02441 18.8659C3.24836 18.9695 3.49527 19.0313 3.75777 19.0313H20.2421C20.5046 19.0313 20.7515 18.9696 20.9753 18.866L14.9592 12.8301Z" fill="#0D2DFF"/>
<path d="M20.2421 4.96875H3.7577C3.4952 4.96875 3.24828 5.03055 3.02441 5.1341L9.4532 11.5842C9.45363 11.5846 9.45414 11.5847 9.45457 11.5852C9.455 11.5856 9.45508 11.5862 9.45508 11.5862L11.5454 13.6834C11.7675 13.9055 12.2324 13.9055 12.4544 13.6834L14.5443 11.5865C14.5443 11.5865 14.5448 11.5856 14.5453 11.5852C14.5453 11.5852 14.5462 11.5846 14.5466 11.5842L20.9753 5.13406C20.7514 5.03047 20.5046 4.96875 20.2421 4.96875Z" fill="#0D2DFF"/>
<path d="M2.18695 5.95361C2.07109 6.18791 2 6.44799 2 6.72658V17.2735C2 17.552 2.07102 17.8121 2.18691 18.0464L8.21359 12.0002L2.18695 5.95361Z" fill="#0D2DFF"/>
<path d="M21.8132 5.95349L15.7866 12.0002L21.8132 18.0465C21.9291 17.8122 22.0002 17.5521 22.0002 17.2734V6.72654C22.0002 6.44787 21.9291 6.18779 21.8132 5.95349Z" fill="#0D2DFF"/>
</svg>
