<svg width="32" height="32" viewBox="0 0 32 32" fill="none" xmlns="http://www.w3.org/2000/svg">
<path d="M29.1556 7H7.11111C5.54667 7 4.26667 8.31538 4.26667 9.92308V11.0192C4.26667 11.4212 4.58667 11.75 4.97778 11.75C5.36889 11.75 5.68889 11.4212 5.68889 11.0192V9.92308C5.68889 9.77692 5.72444 9.63077 5.76 9.48462L13.7244 16.5L5.76 23.5154C5.72444 23.3692 5.68889 23.2231 5.68889 23.0769V21.9808C5.68889 21.5788 5.36889 21.25 4.97778 21.25C4.58667 21.25 4.26667 21.5788 4.26667 21.9808V23.0769C4.26667 24.6846 5.54667 26 7.11111 26H29.1556C30.72 26 32 24.6846 32 23.0769V9.92308C32 8.31538 30.72 7 29.1556 7ZM6.82667 8.49808C6.89778 8.46154 7.00444 8.46154 7.11111 8.46154H29.1556C29.2622 8.46154 29.3689 8.46154 29.44 8.49808L18.5956 18.0346C18.3111 18.2538 17.9556 18.2538 17.6711 18.0346L6.82667 8.49808ZM29.1556 24.5385H7.11111C7.00444 24.5385 6.89778 24.5385 6.82667 24.5019L14.8267 17.45L16.7467 19.1673C17.1378 19.5327 17.6356 19.7154 18.1333 19.7154C18.6311 19.7154 19.1289 19.5327 19.52 19.1673L21.44 17.45L29.44 24.5019C29.3689 24.5385 29.2622 24.5385 29.1556 24.5385ZM30.5778 23.0769C30.5778 23.2231 30.5422 23.3692 30.5067 23.5154L22.5422 16.5L30.5067 9.48462C30.5422 9.63077 30.5778 9.77692 30.5778 9.92308V23.0769ZM2.13333 14.6731C2.13333 14.2712 2.45333 13.9423 2.84444 13.9423H7.11111C7.50222 13.9423 7.82222 14.2712 7.82222 14.6731C7.82222 15.075 7.50222 15.4038 7.11111 15.4038H2.84444C2.45333 15.4038 2.13333 15.075 2.13333 14.6731ZM7.11111 19.0577H0.711111C0.32 19.0577 0 18.7288 0 18.3269C0 17.925 0.32 17.5962 0.711111 17.5962H7.11111C7.50222 17.5962 7.82222 17.925 7.82222 18.3269C7.82222 18.7288 7.50222 19.0577 7.11111 19.0577Z" fill="#0D2DFF"/>
</svg>
