<svg width="25" height="29" viewBox="0 0 25 29" fill="none" xmlns="http://www.w3.org/2000/svg">
<g filter="url(#filter0_d_55_920)">
<path fill-rule="evenodd" clip-rule="evenodd" d="M14.4649 14.5308C14.6676 14.3814 14.9181 14.3728 15.1236 14.4875C15.9267 14.8041 16.503 15.0106 17.278 15.2856C17.6193 15.3494 17.8504 15.7047 17.7916 16.0751L17.4175 18.4326C17.3587 18.803 17.0314 19.0539 16.6901 18.9901C10.8631 17.9006 6.95422 11.892 7.95794 5.56744C8.01673 5.19699 8.34408 4.94611 8.68538 5.00992L10.8573 5.41599C11.1986 5.47981 11.4064 5.83163 11.371 6.20556C11.2991 6.96401 11.3139 7.52566 11.3314 8.18791C11.3355 8.34382 11.3397 8.50531 11.3431 8.67625C11.3739 8.92475 11.2826 9.17815 11.081 9.32079L10.109 10.1308C9.57158 11.1898 12.5869 15.6547 13.494 15.3341L14.4649 14.5308Z" fill="white"/>
<path d="M14.1683 14.1283L14.157 14.1366L14.1462 14.1455L13.3304 14.8205C13.3238 14.817 13.3166 14.8132 13.309 14.8089C13.1951 14.7456 13.041 14.6269 12.8551 14.4465C12.487 14.0892 12.0642 13.559 11.6768 12.9738C11.2897 12.3892 10.9538 11.7733 10.7489 11.2526C10.6462 10.9914 10.5829 10.7703 10.5577 10.5988C10.5452 10.5144 10.5441 10.4557 10.5462 10.4173L11.3882 9.71567C11.7424 9.45413 11.8811 9.02858 11.8425 8.64379C11.8392 8.47951 11.8351 8.32404 11.8312 8.17539L11.8312 8.17472C11.8137 7.51312 11.8 6.9782 11.8687 6.25274C11.9213 5.69829 11.6142 5.04885 10.9492 4.92451L8.77727 4.51843C8.12273 4.39606 7.56098 4.87872 7.46412 5.48907C6.42353 12.046 10.4714 18.3361 16.5982 19.4816C17.2527 19.6039 17.8145 19.1213 17.9113 18.5109L18.2855 16.1535C18.3789 15.5646 18.0278 14.9432 17.4136 14.8032C16.6645 14.5373 16.1038 14.336 15.3335 14.0328C14.9671 13.8441 14.5216 13.8678 14.1683 14.1283ZM13.4032 14.8508C13.4045 14.851 13.4052 14.8511 13.4052 14.8512L13.4032 14.8508Z" stroke="white"/>
</g>
<defs>
<filter id="filter0_d_55_920" x="2.80151" y="3.99872" width="19.9985" height="24.0026" filterUnits="userSpaceOnUse" color-interpolation-filters="sRGB">
<feFlood flood-opacity="0" result="BackgroundImageFix"/>
<feColorMatrix in="SourceAlpha" type="matrix" values="0 0 0 0 0 0 0 0 0 0 0 0 0 0 0 0 0 0 127 0" result="hardAlpha"/>
<feOffset dy="4"/>
<feGaussianBlur stdDeviation="2"/>
<feComposite in2="hardAlpha" operator="out"/>
<feColorMatrix type="matrix" values="0 0 0 0 0 0 0 0 0 0 0 0 0 0 0 0 0 0 0.25 0"/>
<feBlend mode="normal" in2="BackgroundImageFix" result="effect1_dropShadow_55_920"/>
<feBlend mode="normal" in="SourceGraphic" in2="effect1_dropShadow_55_920" result="shape"/>
</filter>
</defs>
</svg>
