<svg width="24" height="24" viewBox="0 0 24 24" fill="none" xmlns="http://www.w3.org/2000/svg">
<path d="M18.9221 16.0372L16.4926 14.3396C16.1749 14.1184 15.8036 14.0014 15.4185 14.0014C14.806 14.0014 14.2313 14.3017 13.8812 14.8041L13.3172 15.6124C12.372 14.9785 11.3171 14.0933 10.3121 13.0883C9.30683 12.083 8.42169 11.0283 7.78815 10.0831L8.59583 9.51935C9.44379 8.92883 9.65235 7.75732 9.06037 6.90735L7.36316 4.47827C7.00812 3.97052 6.43537 3.66748 5.83112 3.66748C5.62183 3.66748 5.41638 3.70428 5.22064 3.77661C4.99872 3.85883 4.79199 3.95935 4.58911 4.08661L4.25366 4.32281C4.1698 4.38818 4.0918 4.45941 4.01709 4.53412C3.60785 4.94336 3.31726 5.46118 3.15357 6.07349C2.45429 8.69501 4.18665 12.6585 7.46424 15.9361C10.2167 18.6885 13.5234 20.3986 16.0938 20.3987C16.094 20.3987 16.0942 20.3987 16.0944 20.3987C16.5342 20.3987 16.9487 20.3475 17.327 20.2468C17.9393 20.0831 18.4572 19.7925 18.8658 19.3836C18.9407 19.3091 19.0121 19.2309 19.0883 19.1322L19.3249 18.7946C19.4408 18.6089 19.5413 18.402 19.6237 18.1797C19.9097 17.407 19.6213 16.5259 18.9221 16.0372Z" fill="#0B21B1"/>
<path d="M17.672 5.72837C16.0557 4.11192 13.9101 3.14329 11.6304 3.00083C11.4249 2.9871 11.2457 3.14512 11.2327 3.35166C11.2197 3.55839 11.3768 3.73637 11.5835 3.74937C13.6806 3.88047 15.6545 4.77164 17.1417 6.25864C18.6285 7.74546 19.5195 9.71915 19.6508 11.8163C19.6632 12.0149 19.8282 12.1678 20.0247 12.1678C20.0325 12.1678 20.0404 12.1676 20.0485 12.1671C20.2552 12.1541 20.4123 11.9761 20.3993 11.7694C20.2567 9.4899 19.288 7.34446 17.672 5.72837Z" fill="#0B21B1"/>
<path d="M11.4429 5.99499C12.9929 6.09203 14.4517 6.75066 15.5507 7.84966C16.6495 8.94866 17.3081 10.4073 17.4052 11.9569C17.4176 12.1556 17.5826 12.3085 17.7791 12.3085C17.7869 12.3085 17.7948 12.3083 17.8029 12.3077C18.0096 12.2947 18.1667 12.1168 18.1537 11.91C18.0453 10.1778 17.3092 8.54748 16.081 7.31939C14.8527 6.09112 13.2221 5.35485 11.4898 5.24645C11.2823 5.23492 11.1051 5.39074 11.0921 5.59728C11.0791 5.80401 11.2362 5.98199 11.4429 5.99499Z" fill="#0B21B1"/>
<path d="M11.3023 8.24062C12.3048 8.30342 13.2485 8.72951 13.9597 9.44051C14.6707 10.1517 15.0968 11.0952 15.1597 12.0976C15.1722 12.2964 15.3374 12.4491 15.5336 12.4491C15.5415 12.4491 15.5496 12.4489 15.5575 12.4484C15.7642 12.4354 15.9213 12.2572 15.9083 12.0507C15.8339 10.8658 15.3302 9.75069 14.4899 8.91024C13.6495 8.06996 12.534 7.56624 11.3491 7.49208C11.1397 7.47798 10.9644 7.63637 10.9514 7.84291C10.9384 8.04964 11.0955 8.22762 11.3023 8.24062Z" fill="#0B21B1"/>
</svg>
