<svg width="32" height="32" viewBox="0 0 32 32" fill="none" xmlns="http://www.w3.org/2000/svg">
<path d="M13.875 6C18.224 6 21.75 9.52604 21.75 13.875C21.75 15.6948 21.1272 17.3649 20.0903 18.6984L26.7112 25.3193C26.9035 25.5116 27 25.763 27 26.0156C27 26.2676 26.9035 26.5196 26.7112 26.7119C26.5196 26.9042 26.2676 27 26.0156 27C25.7636 27 25.5116 26.9042 25.32 26.7119L18.6984 20.0903C17.3649 21.1272 15.6948 21.75 13.875 21.75C9.52604 21.75 6 18.224 6 13.875C6 9.52604 9.52604 6 13.875 6ZM13.875 19.7813C17.132 19.7813 19.7812 17.132 19.7812 13.875C19.7812 10.618 17.132 7.96875 13.875 7.96875C10.618 7.96875 7.96875 10.618 7.96875 13.875C7.96875 17.132 10.618 19.7813 13.875 19.7813Z" fill="white"/>
</svg>
