<svg width="12" height="12" viewBox="0 0 12 12" fill="none" xmlns="http://www.w3.org/2000/svg">
<g clip-path="url(#clip0_1533_29385)">
<path d="M7.04765 1.45324L7.79765 3.02824C7.94765 3.40324 8.32265 3.62824 8.69765 3.62824L10.4226 3.85324C11.3976 4.00324 11.7726 5.12824 11.0226 5.80324L9.82265 7.00324C9.52265 7.30324 9.44765 7.67824 9.52265 8.05324L9.82265 9.77824C9.97265 10.6782 8.99765 11.4282 8.17265 10.9782L6.67265 10.1532C6.37265 10.0032 5.92265 10.0032 5.62265 10.1532L4.12265 10.9782C3.29765 11.4282 2.32265 10.6782 2.47265 9.77824L2.77265 8.05324C2.84765 7.67824 2.69765 7.30324 2.47265 7.00324L1.27265 5.80324C0.597647 5.12824 0.972646 4.00324 1.87265 3.85324L3.59765 3.62824C3.74765 3.55324 4.04765 3.32824 4.27265 2.95324L5.02265 1.37824C5.39765 0.553236 6.67265 0.553235 7.04765 1.45324Z" fill="#E4E4E4"/>
</g>
<defs>
<clipPath id="clip0_1533_29385">
<rect width="12" height="12" fill="white"/>
</clipPath>
</defs>
</svg>
