<svg width="24" height="24" viewBox="0 0 24 24" fill="none" xmlns="http://www.w3.org/2000/svg">
<path d="M11.625 2C9.72136 2 7.86046 2.5645 6.27764 3.62211C4.69482 4.67972 3.46116 6.18294 2.73266 7.94168C2.00417 9.70042 1.81356 11.6357 2.18495 13.5028C2.55633 15.3698 3.47302 17.0848 4.8191 18.4309C6.16518 19.777 7.88019 20.6937 9.74726 21.0651C11.6143 21.4365 13.5496 21.2458 15.3083 20.5174C17.0671 19.7889 18.5703 18.5552 19.6279 16.9724C20.6855 15.3896 21.25 13.5287 21.25 11.625C21.247 9.07322 20.232 6.62681 18.4276 4.82242C16.6232 3.01804 14.1768 2.00301 11.625 2ZM14.8686 14.8686C14.7045 15.0327 14.482 15.1248 14.25 15.1248C14.018 15.1248 13.7955 15.0327 13.6314 14.8686L11.0064 12.2436C10.8423 12.0796 10.7501 11.8571 10.75 11.625V6.375C10.75 6.14294 10.8422 5.92038 11.0063 5.75628C11.1704 5.59219 11.3929 5.5 11.625 5.5C11.8571 5.5 12.0796 5.59219 12.2437 5.75628C12.4078 5.92038 12.5 6.14294 12.5 6.375V11.2628L14.8686 13.6314C15.0327 13.7955 15.1248 14.018 15.1248 14.25C15.1248 14.482 15.0327 14.7045 14.8686 14.8686Z" fill="#0D2DFF"/>
</svg>
