<svg width="25" height="24" viewBox="0 0 25 24" fill="none" xmlns="http://www.w3.org/2000/svg">
<path fill-rule="evenodd" clip-rule="evenodd" d="M12.7964 19C16.6624 19 19.7964 15.866 19.7964 12C19.7964 8.13401 16.6624 5 12.7964 5C8.93045 5 5.79645 8.13401 5.79645 12C5.79645 15.866 8.93045 19 12.7964 19ZM12.7964 21C17.767 21 21.7964 16.9706 21.7964 12C21.7964 7.02944 17.767 3 12.7964 3C7.82588 3 3.79645 7.02944 3.79645 12C3.79645 16.9706 7.82588 21 12.7964 21ZM12.7964 6C13.3487 6 13.7964 6.44772 13.7964 7V11L16.7964 11C17.3487 11 17.7964 11.4477 17.7964 12C17.7964 12.5523 17.3487 13 16.7964 13L12.7978 13C12.7974 13 12.7969 13 12.7964 13C12.2442 13 11.7964 12.5523 11.7964 12V7C11.7964 6.44772 12.2442 6 12.7964 6Z" fill="white"/>
</svg>
