<svg width="26" height="26" viewBox="0 0 26 26" fill="none" xmlns="http://www.w3.org/2000/svg">
<path d="M21.9249 17.6618C21.7173 17.8884 21.1627 17.938 21.1627 17.938H18.2055C18.2055 17.938 17.7922 18.0318 17.0612 17.2936C16.558 16.7874 16.0418 16.0403 15.6304 15.7306C15.3843 15.5447 15.1529 15.6385 15.1529 15.6385C15.1529 15.6385 14.7212 15.658 14.6753 16.0988C14.5945 16.8706 14.4843 17.2936 14.4843 17.2936C14.4843 17.2936 14.431 17.6193 14.2933 17.7539C14.1463 17.8955 13.9112 17.938 13.9112 17.938C13.9112 17.938 9.83 18.8248 6.66163 13.8914C4.3749 10.3333 4.08653 9.29597 4.08653 9.29597C4.08653 9.29597 3.89184 9.0446 4.08653 8.74367C4.29041 8.42681 4.56408 8.46752 4.56408 8.46752H7.23469C7.23469 8.46752 7.53041 8.49762 7.71224 8.65162C7.91061 8.81979 7.99878 9.11187 7.99878 9.11187C7.99878 9.11187 8.58469 10.4767 9.23857 11.5016C10.1441 12.9195 10.5739 12.7885 10.5739 12.7885C10.5739 12.7885 11.3545 12.5796 10.8604 9.38625C10.7924 8.94547 9.90714 8.83395 9.90714 8.83395C9.90714 8.83395 9.8998 8.45336 10.0982 8.28165C10.3259 8.08694 10.5757 8.09756 10.5757 8.09756C10.5757 8.09756 10.9724 8.03029 12.3886 8.00551C13.1049 7.99312 13.6284 8.00551 13.6284 8.00551C13.6284 8.00551 13.9773 7.99489 14.3906 8.28165C14.5908 8.41973 14.5816 8.7419 14.5816 8.7419C14.5816 8.7419 14.4971 11.0449 14.5816 12.2362C14.6184 12.7478 14.8682 12.7885 14.8682 12.7885C14.8682 12.7885 15.1363 12.9886 16.2035 11.5016C16.8794 10.5599 17.4433 9.20392 17.4433 9.20392C17.4433 9.20392 17.5829 8.81625 17.7298 8.65162C17.8694 8.49408 18.1118 8.46752 18.1118 8.46752H21.5465C21.5465 8.46752 21.7578 8.46044 21.8331 8.65162C21.901 8.82687 21.8331 9.20392 21.8331 9.20392C21.8331 9.20392 21.7963 9.61991 21.451 10.1226C20.6355 11.3104 19.0633 13.2488 19.0633 13.2488C19.0633 13.2488 18.9457 13.5125 18.9678 13.709C18.9935 13.925 19.1588 14.0772 19.1588 14.0772C19.1588 14.0772 20.3435 15.111 21.1627 16.0085C21.6053 16.4935 21.9249 17.1113 21.9249 17.1113C21.9249 17.1113 22.0939 17.4777 21.9249 17.6618Z" fill="white"/>
</svg>
